<svg width="24" height="24" viewBox="0 0 24 24" fill="none" xmlns="http://www.w3.org/2000/svg">
<path d="M20.53 12.53L17.53 15.53C17.384 15.676 17.192 15.75 17 15.75C16.808 15.75 16.616 15.677 16.47 15.53C16.177 15.237 16.177 14.762 16.47 14.469L18.19 12.749H9.001C8.587 12.749 8.251 12.413 8.251 11.999C8.251 11.585 8.587 11.249 9.001 11.249H18.19L16.47 9.529C16.177 9.236 16.177 8.761 16.47 8.468C16.763 8.175 17.238 8.175 17.531 8.468L20.531 11.468C20.824 11.761 20.824 12.236 20.531 12.529L20.53 12.53ZM9.75 20C9.75 19.586 9.414 19.25 9 19.25H6C5.311 19.25 4.75 18.689 4.75 18V6C4.75 5.311 5.311 4.75 6 4.75H9C9.414 4.75 9.75 4.414 9.75 4C9.75 3.586 9.414 3.25 9 3.25H6C4.483 3.25 3.25 4.483 3.25 6V18C3.25 19.517 4.483 20.75 6 20.75H9C9.414 20.75 9.75 20.414 9.75 20Z" fill="white"/>
</svg>
